STARTFONT 2.1
COMMENT Copyright (C) 2022 by Andrew G. Crowell. Creative Commons Attribution 4.0 International License (CC BY 4.0).
COMMENT om_window_shadow_outline.bdf
FONT -eggboycolor-omelette_window_shadow_outline-medium-r-normal--8-100-72-72-m-90-ISO8859-1
SIZE 8 72 72
FONTBOUNDINGBOX 8 8 0 -2
STARTPROPERTIES 13
FONT_ASCENT 6 
FONT_DESCENT 2
PIXEL_SIZE 8
POINT_SIZE 100
RESOLUTION_X 72
RESOLUTION_Y 72
SPACING "C"
DEFAULT_CHAR 32
AVERAGE_WIDTH 90
CHARSET_REGISTRY "ISO8859"
CHARSET_ENCODING "1"
FOUNDRY "eggboycolor"
COPYRIGHT "Copyright (C) 2022 by Andrew G. Crowell. Creative Commons Attribution 4.0 International License (CC BY 4.0)."
ENDPROPERTIES
CHARS 24
STARTCHAR char65
ENCODING 65
SWIDTH 800 0
DWIDTH 8 0
BBX 8 8 0 -2
BITMAP
07
18
20
47
48
90
90
90
ENDCHAR
STARTCHAR char66
ENCODING 66
SWIDTH 800 0
DWIDTH 8 0
BBX 8 8 0 -2
BITMAP
FF
00
00
FF
00
00
00
00
ENDCHAR
STARTCHAR char67
ENCODING 67
SWIDTH 800 0
DWIDTH 8 0
BBX 8 8 0 -2
BITMAP
E0
18
04
E2
12
09
09
09
ENDCHAR
STARTCHAR char68
ENCODING 68
SWIDTH 800 0
DWIDTH 8 0
BBX 8 8 0 -2
BITMAP
00
00
00
00
00
00
00
00
ENDCHAR
STARTCHAR char69
ENCODING 69
SWIDTH 800 0
DWIDTH 8 0
BBX 8 8 0 -2
BITMAP
00
00
00
00
00
00
00
00
ENDCHAR
STARTCHAR char70
ENCODING 70
SWIDTH 800 0
DWIDTH 8 0
BBX 8 8 0 -2
BITMAP
00
00
00
00
00
00
00
00
ENDCHAR
STARTCHAR char71
ENCODING 71
SWIDTH 800 0
DWIDTH 8 0
BBX 8 8 0 -2
BITMAP
00
1E
22
42
4E
48
78
00
ENDCHAR
STARTCHAR char72
ENCODING 72
SWIDTH 800 0
DWIDTH 8 0
BBX 8 8 0 -2
BITMAP
00
78
44
42
72
12
1E
00
ENDCHAR
STARTCHAR char73
ENCODING 73
SWIDTH 800 0
DWIDTH 8 0
BBX 8 8 0 -2
BITMAP
90
90
90
90
90
90
90
90
ENDCHAR
STARTCHAR char74
ENCODING 74
SWIDTH 800 0
DWIDTH 8 0
BBX 8 8 0 -2
BITMAP
00
00
00
00
00
00
00
00
ENDCHAR
STARTCHAR char75
ENCODING 75
SWIDTH 800 0
DWIDTH 8 0
BBX 8 8 0 -2
BITMAP
09
09
09
09
09
09
09
09
ENDCHAR
STARTCHAR char76
ENCODING 76
SWIDTH 800 0
DWIDTH 8 0
BBX 8 8 0 -2
BITMAP
00
00
00
00
00
00
00
00
ENDCHAR
STARTCHAR char77
ENCODING 77
SWIDTH 800 0
DWIDTH 8 0
BBX 8 8 0 -2
BITMAP
00
00
00
00
00
00
00
00
ENDCHAR
STARTCHAR char78
ENCODING 78
SWIDTH 800 0
DWIDTH 8 0
BBX 8 8 0 -2
BITMAP
00
00
00
00
00
00
00
00
ENDCHAR
STARTCHAR char79
ENCODING 79
SWIDTH 800 0
DWIDTH 8 0
BBX 8 8 0 -2
BITMAP
00
78
48
4E
42
22
1E
00
ENDCHAR
STARTCHAR char80
ENCODING 80
SWIDTH 800 0
DWIDTH 8 0
BBX 8 8 0 -2
BITMAP
00
1E
12
72
42
44
78
00
ENDCHAR
STARTCHAR char81
ENCODING 81
SWIDTH 800 0
DWIDTH 8 0
BBX 8 8 0 -2
BITMAP
90
90
90
48
47
20
18
07
ENDCHAR
STARTCHAR char82
ENCODING 82
SWIDTH 800 0
DWIDTH 8 0
BBX 8 8 0 -2
BITMAP
00
00
00
00
FF
00
00
FF
ENDCHAR
STARTCHAR char83
ENCODING 83
SWIDTH 800 0
DWIDTH 8 0
BBX 8 8 0 -2
BITMAP
09
09
09
12
E2
04
18
E0
ENDCHAR
STARTCHAR char84
ENCODING 84
SWIDTH 800 0
DWIDTH 8 0
BBX 8 8 0 -2
BITMAP
00
00
00
00
00
00
00
00
ENDCHAR
STARTCHAR char85
ENCODING 85
SWIDTH 800 0
DWIDTH 8 0
BBX 8 8 0 -2
BITMAP
00
00
00
00
00
00
00
00
ENDCHAR
STARTCHAR char86
ENCODING 86
SWIDTH 800 0
DWIDTH 8 0
BBX 8 8 0 -2
BITMAP
00
00
00
00
00
00
00
00
ENDCHAR
STARTCHAR char87
ENCODING 87
SWIDTH 800 0
DWIDTH 8 0
BBX 8 8 0 -2
BITMAP
00
00
24
00
24
18
42
3C
ENDCHAR
STARTCHAR char88
ENCODING 88
SWIDTH 800 0
DWIDTH 8 0
BBX 8 8 0 -2
BITMAP
00
00
24
00
18
24
42
3C
ENDCHAR
ENDFONT
